<?xml version="1.0" encoding="UTF-8" standalone="no"?>
<svg
   xmlns:dc="http://purl.org/dc/elements/1.1/"
   xmlns:cc="http://creativecommons.org/ns#"
   xmlns:rdf="http://www.w3.org/1999/02/22-rdf-syntax-ns#"
   xmlns:svg="http://www.w3.org/2000/svg"
   xmlns="http://www.w3.org/2000/svg"
   xmlns:sodipodi="http://sodipodi.sourceforge.net/DTD/sodipodi-0.dtd"
   xmlns:inkscape="http://www.inkscape.org/namespaces/inkscape"
   id="59725d3d-bdd8-4af0-9b66-49b8d09410bc"
   data-name="Layer 1"
   width="1041.32"
   height="554.17"
   viewBox="0 0 1041.32 554.17"
   version="1.1"
   sodipodi:docname="undraw_programming_2svr.svg"
   inkscape:export-filename="C:\Users\Miguel\Desktop\undraw_programming_2svr.png"
   inkscape:export-xdpi="96"
   inkscape:export-ydpi="96"
   inkscape:version="1.0.1 (3bc2e813f5, 2020-09-07)">
  <metadata
     id="metadata1734">
    <rdf:RDF>
      <cc:Work
         rdf:about="">
        <dc:format>image/svg+xml</dc:format>
        <dc:type
           rdf:resource="http://purl.org/dc/dcmitype/StillImage" />
      </cc:Work>
    </rdf:RDF>
  </metadata>
  <sodipodi:namedview
     pagecolor="#ffffff"
     bordercolor="#666666"
     borderopacity="1"
     objecttolerance="10"
     gridtolerance="10"
     guidetolerance="10"
     inkscape:pageopacity="0"
     inkscape:pageshadow="2"
     inkscape:window-width="1920"
     inkscape:window-height="1001"
     id="namedview1732"
     showgrid="false"
     inkscape:zoom="1.4977354"
     inkscape:cx="346.73072"
     inkscape:cy="250.378"
     inkscape:window-x="-9"
     inkscape:window-y="-9"
     inkscape:window-maximized="1"
     inkscape:current-layer="59725d3d-bdd8-4af0-9b66-49b8d09410bc" />
  <defs
     id="defs1575">
    <rect
       x="406.61388"
       y="333.16966"
       width="140.87936"
       height="101.48655"
       id="rect1738" />
    <linearGradient
       id="dff037aa-d578-4bab-81e7-399360663117"
       x1="597.75"
       y1="725.44"
       x2="597.75"
       y2="347.69"
       gradientUnits="userSpaceOnUse">
      <stop
         offset="0"
         stop-color="gray"
         stop-opacity="0.25"
         id="stop1568" />
      <stop
         offset="0.54"
         stop-color="gray"
         stop-opacity="0.12"
         id="stop1570" />
      <stop
         offset="1"
         stop-color="gray"
         stop-opacity="0.1"
         id="stop1572" />
    </linearGradient>
  </defs>
  <title
     id="title1577">programming</title>
  <path
     d="M1040.82,611.12q-1.74,3.75-3.47,7.4-2.7,5.67-5.33,11.12c-.78,1.61-1.56,3.19-2.32,4.77-8.6,17.57-16.63,33.11-23.45,45.89A73.21,73.21,0,0,1,942.44,719l-151.65,1.65h-1.6l-13,.14-11.12.12-34.1.37-1.38,0-17.36.19h-.53l-107,1.16-95.51,1-11.11.12-69,.75H429l-44.75.48h-.48l-141.5,1.53-42.33.46a88.07,88.07,0,0,1-26.67-3.82,86.39,86.39,0,0,1-39.09-24.75C116,678.37,102.75,655,93.85,629.64q-1.93-5.49-3.6-11.12C59.44,514.37,97,380,164.6,290.08q4.25-5.64,8.64-11l.07-.08c20.79-25.52,44.1-46.84,68.93-62,44-26.91,92.75-34.49,140.7-11.9,40.57,19.12,78.45,28.11,115.17,30.55,3.71.24,7.42.42,11.11.53,84.23,2.65,163.17-27.7,255.87-47.29,3.69-.78,7.39-1.55,11.12-2.28,66.13-13.16,139.49-20.1,226.73-5.51a189.09,189.09,0,0,1,26.76,6.4q5.77,1.86,11.12,4c41.64,16.94,64.35,48.24,74,87.46q1.37,5.46,2.37,11.11C1134.3,384.41,1084.19,518.23,1040.82,611.12Z"
     transform="translate(-79.34 -172.91)"
     fill="#6c63ff"
     opacity="0.1"
     id="path1579" />
  <g
     opacity="0.1"
     id="g1593">
    <path
       d="M242.24,217V726.62l-42.33.46a88.07,88.07,0,0,1-26.67-3.82V279h.07C194.1,253.45,217.41,232.13,242.24,217Z"
       transform="translate(-79.34 -172.91)"
       fill="#6c63ff"
       id="path1581" />
    <path
       d="M1117.24,290.08H164.6q4.25-5.64,8.64-11V279h941.63Q1116.24,284.43,1117.24,290.08Z"
       transform="translate(-79.34 -172.91)"
       fill="#6c63ff"
       id="path1583" />
    <path
       d="M1040.82,191.51v427h-3.47q-2.7,5.67-5.33,11.12c-.78,1.61-1.56,3.19-2.32,4.77V187.47Q1035.47,189.33,1040.82,191.51Z"
       transform="translate(-79.34 -172.91)"
       fill="#6c63ff"
       id="path1585" />
    <path
       d="M776.21,186.58V720.83l-11.12.12V188.86C768.78,188.08,772.48,187.31,776.21,186.58Z"
       transform="translate(-79.34 -172.91)"
       fill="#6c63ff"
       id="path1587" />
    <path
       d="M509.22,236.15V723.73l-11.11.12V235.62C501.82,235.86,505.53,236,509.22,236.15Z"
       transform="translate(-79.34 -172.91)"
       fill="#6c63ff"
       id="path1589" />
    <path
       d="M1037.35,618.52q-2.7,5.67-5.33,11.12H93.85q-1.93-5.49-3.6-11.12Z"
       transform="translate(-79.34 -172.91)"
       fill="#6c63ff"
       id="path1591" />
  </g>
  <rect
     x="211.6"
     y="265.83"
     width="19"
     height="57.66"
     fill="#3f3d56"
     id="rect1595" />
  <rect
     x="722.93"
     y="262.83"
     width="19"
     height="61"
     fill="#3f3d56"
     id="rect1597" />
  <polygon
     points="863.1 533.65 863.1 546.65 711.18 548.05 709.56 548.08 651.82 548.61 650.44 548.63 632.89 548.78 632.37 548.78 525.39 549.77 349.78 551.4 349.63 551.4 304.98 551.82 304.5 551.83 106.1 553.65 106.1 538.65 152.75 510.65 246.35 509.87 248.35 509.86 249.01 509.85 251.01 509.82 295.95 509.45 297.96 509.44 298.6 509.43 300.6 509.42 315.01 509.3 315.39 509.29 350.94 508.99 351.23 508.99 628.63 506.65 635.42 506.6 636.1 506.6 641.28 506.55 678.93 506.24 680.93 506.21 682.78 506.19 683.74 506.19 695.45 506.1 697.77 506.07 700.88 506.05 710.63 505.96 726.1 505.83 728.1 505.81 731.58 505.79 732.23 505.79 806.94 505.15 863.1 533.65"
     fill="#65617d"
     id="polygon1599" />
  <polygon
     points="863.1 533.65 863.1 546.65 711.18 548.05 709.56 548.08 651.82 548.61 650.44 548.63 632.89 548.78 632.37 548.78 525.39 549.77 349.78 551.4 349.63 551.4 304.98 551.82 304.5 551.83 106.1 553.65 106.1 538.65 152.75 510.65 246.35 509.87 248.35 509.86 249.01 509.85 251.01 509.82 295.95 509.45 297.96 509.44 298.6 509.43 300.6 509.42 315.01 509.3 315.39 509.29 350.94 508.99 351.23 508.99 628.63 506.65 635.42 506.6 636.1 506.6 641.28 506.55 678.93 506.24 680.93 506.21 682.78 506.19 683.74 506.19 695.45 506.1 697.77 506.07 700.88 506.05 710.63 505.96 726.1 505.83 728.1 505.81 731.58 505.79 732.23 505.79 806.94 505.15 863.1 533.65"
     opacity="0.2"
     id="polygon1601" />
  <path
     d="M375.44,656.57v24.49a6.13,6.13,0,0,1-3.5,5.54,6,6,0,0,1-2.5.6l-34.9.74a6,6,0,0,1-2.7-.57,6.12,6.12,0,0,1-3.57-5.57V656.57Z"
     transform="translate(-79.34 -172.91)"
     fill="#3f3d56"
     id="path1603" />
  <path
     d="M375.44,656.57v24.49a6.13,6.13,0,0,1-3.5,5.54,6,6,0,0,1-2.5.6l-34.9.74a6,6,0,0,1-2.7-.57,6.12,6.12,0,0,1-3.57-5.57V656.57Z"
     transform="translate(-79.34 -172.91)"
     opacity="0.1"
     id="path1605" />
  <path
     d="M377.44,656.57v24.49a6.13,6.13,0,0,1-3.5,5.54,6,6,0,0,1-2.5.6l-34.9.74a6,6,0,0,1-2.7-.57,6.12,6.12,0,0,1-3.57-5.57V656.57Z"
     transform="translate(-79.34 -172.91)"
     fill="#3f3d56"
     id="path1607" />
  <rect
     x="680.93"
     y="483.66"
     width="47.17"
     height="31.5"
     fill="#3f3d56"
     id="rect1609" />
  <rect
     x="680.93"
     y="483.66"
     width="47.17"
     height="31.5"
     opacity="0.1"
     id="rect1611" />
  <rect
     x="678.93"
     y="483.66"
     width="47.17"
     height="31.5"
     fill="#3f3d56"
     id="rect1613" />
  <polygon
     points="230.6 265.82 230.6 271.55 211.6 271.06 211.6 265.82 230.6 265.82"
     opacity="0.1"
     id="polygon1615" />
  <path
     d="M435,277.31l-22.83,164a4.3,4.3,0,0,1-4.37,3.71L225,440.28l-3.47-.09a4.3,4.3,0,0,1-4.16-4.87L243,263.64a4.3,4.3,0,0,1,4.54-3.63L431,272.43A4.29,4.29,0,0,1,435,277.31Z"
     transform="translate(-79.34 -172.91)"
     fill="#65617d"
     id="path1617" />
  <polygon
     points="175.93 99.16 156.6 250.49 324.6 255.82 345.26 109.82 175.93 99.16"
     fill="#6c63ff"
     id="polygon1619" />
  <rect
     x="384.6"
     y="96.82"
     width="204.67"
     height="173.33"
     rx="5.33"
     ry="5.33"
     fill="#65617d"
     id="rect1621" />
  <rect
     x="394.26"
     y="108.49"
     width="186"
     height="144.33"
     fill="#6c63ff"
     id="rect1623" />
  <polygon
     points="741.93 262.82 741.93 266.61 722.93 267 722.93 262.82 741.93 262.82"
     opacity="0.1"
     id="polygon1625" />
  <path
     d="M907,432.53a3.08,3.08,0,0,1-3,3.28L716.8,439.68a3.08,3.08,0,0,1-3.13-2.79L697.58,269.61a3.08,3.08,0,0,1,2.92-3.37L886.28,257l2-.1a3.07,3.07,0,0,1,3.22,2.8Z"
     transform="translate(-79.34 -172.91)"
     fill="#65617d"
     id="path1627" />
  <polygon
     points="628.93 103.16 798.6 94.82 812.93 246.82 644.6 250.82 628.93 103.16"
     fill="#6c63ff"
     id="polygon1629" />
  <path
     d="M907,432.53a3.08,3.08,0,0,1-3,3.28L886.28,257l2-.1a3.07,3.07,0,0,1,3.22,2.8Z"
     transform="translate(-79.34 -172.91)"
     opacity="0.1"
     id="path1631" />
  <path
     d="M247.57,260,225,440.28l-3.47-.09a4.3,4.3,0,0,1-4.16-4.87L243,263.64A4.3,4.3,0,0,1,247.57,260Z"
     transform="translate(-79.34 -172.91)"
     opacity="0.1"
     id="path1633" />
  <rect
     x="211.6"
     y="306.41"
     width="19"
     height="17.08"
     opacity="0.1"
     id="rect1635" />
  <polygon
     points="298.1 483.65 298.1 488.62 250.93 489.88 250.93 483.65 298.1 483.65"
     opacity="0.1"
     id="polygon1637" />
  <path
     d="M460.69,485.27v168.2a4,4,0,0,1-3.85,3.95l-191.65,5.1h-.05a4,4,0,0,1-3.95-3.95V485.27a4,4,0,0,1,3.95-3.95h191.6A4,4,0,0,1,460.69,485.27Z"
     transform="translate(-79.34 -172.91)"
     fill="#65617d"
     id="path1639" />
  <path
     d="M265.19,481.32v181.2h-.05a4,4,0,0,1-3.95-3.95V485.27a4,4,0,0,1,3.95-3.95Z"
     transform="translate(-79.34 -172.91)"
     opacity="0.1"
     id="path1641" />
  <polygon
     points="194.6 319.15 372.1 319.15 372.1 467.4 194.6 471.4 194.6 319.15"
     fill="#d4dfec"
     id="polygon1643" />
  <rect
     x="722.93"
     y="306.41"
     width="19"
     height="17.42"
     opacity="0.1"
     id="rect1645" />
  <polygon
     points="726.1 483.65 726.1 490.06 678.93 488.8 678.93 483.65 726.1 483.65"
     opacity="0.1"
     id="polygon1647" />
  <path
     d="M867.69,485.27v173.3a4,4,0,0,1-4,3.95h0L672,657.42a4,4,0,0,1-3.85-3.95V485.27a4,4,0,0,1,3.95-3.95h191.6A4,4,0,0,1,867.69,485.27Z"
     transform="translate(-79.34 -172.91)"
     fill="#65617d"
     id="path1649" />
  <path
     d="M867.69,485.27v173.3a4,4,0,0,1-4,3.95h0V481.32h0A4,4,0,0,1,867.69,485.27Z"
     transform="translate(-79.34 -172.91)"
     opacity="0.1"
     id="path1651" />
  <polygon
     points="775.6 319.15 598.1 319.15 598.1 467.4 775.6 471.4 775.6 319.15"
     fill="#d4dfec"
     id="polygon1653" />
  <path
     d="M663.19,485.27v168.2a4,4,0,0,1-3.85,3.95l-191.65,5.1h0a4,4,0,0,1-4-3.95V485.27a4,4,0,0,1,3.95-3.95h191.6A4,4,0,0,1,663.19,485.27Z"
     transform="translate(-79.34 -172.91)"
     fill="#65617d"
     id="path1655" />
  <polygon
     points="574.6,319.15 574.6,467.4 397.1,471.4 397.1,319.15 "
     fill="#d4dfec"
     id="polygon1657"
     transform="translate(-2.003024,-2.003024)" />
  <polygon
     points="863.1 533.65 863.1 546.65 711.18 548.05 709.56 548.08 651.82 548.61 650.44 548.63 632.89 548.78 632.37 548.78 525.39 549.77 349.78 551.4 349.63 551.4 304.98 551.82 304.5 551.83 106.1 553.65 106.1 538.65 308.61 537.32 309.09 537.32 350.08 537.04 350.27 537.04 633.35 535.17 633.64 535.17 633.81 535.16 634.28 535.16 639.07 535.13 640.53 535.13 715.02 534.63 719.42 534.61 720.4 534.6 863.1 533.65"
     opacity="0.1"
     id="polygon1659" />
  <path
     d="M445.44,607.57s57,29.5,77.5,26Z"
     transform="translate(-79.34 -172.91)"
     opacity="0.1"
     id="path1671" />
  <path
     d="m 482.1,426.66605 c 0,0 55.5,18 74,20.5 18.5,2.5 -74,-20.5 -74,-20.5 z"
     opacity="0.1"
     id="path1673" />
  <path
     d="M716.37,657.17l-.1,1.43v.1l-.17,2.3-1.33,18.51-1.61,22.3-.46,6.28-1,13.44v.17l-107,1L429.11,724.6l0,.84h-.14l0-.84v-.28l.45-14.36.86-28.06.74-23.79.07-2.37a10.53,10.53,0,0,1,11.42-10.17c4.72.4,10.85.89,18.18,1.41l3,.22c42.33,2.94,120.56,6.74,199.5,2,1.66-.09,3.33-.19,5-.31,12.24-.77,24.47-1.76,36.58-3a10.53,10.53,0,0,1,11.6,11.23Z"
     transform="translate(-79.34 -172.91)"
     opacity="0.1"
     id="path1687" />
  <path
     d="M429.08,725.44l0-.84,175.62-1.91,107-1H712v-.17l1-13.44.43-6,1.64-22.61,1.29-17.9,0-.44a10.62,10.62,0,0,0-.11-2.47.3.3,0,0,0,0-.1,10.39,10.39,0,0,0-2-4.64,10.54,10.54,0,0,0-9.42-4c-12.11,1.24-24.34,2.23-36.58,3-1.67.12-3.34.22-5,.31-78.94,4.69-157.17.89-199.5-2l-3-.22c-7.33-.52-13.46-1-18.18-1.41a10.54,10.54,0,0,0-11.24,8.53,11,11,0,0,0-.18,1.64l-.68,22.16L429.54,710l-.44,14.36v.28l0,.84Z"
     transform="translate(-79.34 -172.91)"
     fill="#3f3d56"
     id="path1689" />
  <path
     d="M377.44,677.87v3.19a6.13,6.13,0,0,1-3.5,5.54l-40.1.77a6.12,6.12,0,0,1-3.57-5.57v-3Z"
     transform="translate(-79.34 -172.91)"
     opacity="0.1"
     id="path1693" />
  <polygon
     points="298.6 515.57 246.35 516.57 246.35 507.9 298.6 506.9 298.6 515.57"
     fill="#3f3d56"
     id="polygon1695" />
  <polygon
     points="298.6 515.57 246.35 516.57 246.35 507.9 298.6 506.9 298.6 515.57"
     opacity="0.1"
     id="polygon1697" />
  <polygon
     points="300.6 515.57 248.35 516.57 248.35 507.9 300.6 506.9 300.6 515.57"
     fill="#3f3d56"
     id="polygon1699" />
  <path
     d="M763.44,656.57s3.17,11.5,0,21.5S763.44,656.57,763.44,656.57Z"
     transform="translate(-79.34 -172.91)"
     opacity="0.1"
     id="path1721" />
  <path
     d="M776.94,668.3s1.33,14.6-1.67,17.19S776.94,668.3,776.94,668.3Z"
     transform="translate(-79.34 -172.91)"
     opacity="0.1"
     id="path1723" />
  <line
     x1="198.99"
     y1="342.86"
     x2="300.6"
     y2="341.86"
     fill="none"
     stroke="#6c63ff"
     stroke-miterlimit="10"
     stroke-width="2"
     id="line1725" />
  <line
     x1="198.99"
     y1="355.33"
     x2="300.6"
     y2="354.34"
     fill="none"
     stroke="#6c63ff"
     stroke-miterlimit="10"
     stroke-width="2"
     id="line1727" />
  <line
     x1="198.99"
     y1="367.81"
     x2="300.6"
     y2="366.81"
     fill="none"
     stroke="#6c63ff"
     stroke-miterlimit="10"
     stroke-width="2"
     id="line1729" />
  <text
     xml:space="preserve"
     id="text1736"
     style="font-style:normal;font-weight:normal;font-size:40px;line-height:0;font-family:sans-serif;white-space:pre;shape-inside:url(#rect1738);fill:#000000;fill-opacity:1;stroke:none;"
     transform="translate(16.024192,22.033264)"><tspan
       x="406.61328"
       y="364.92079"><tspan
         style="font-style:normal;font-variant:normal;font-weight:normal;font-stretch:normal;line-height:0.95;font-family:'Berlin Sans FB Demi';-inkscape-font-specification:'Berlin Sans FB Demi';fill:#5599ff">Miguel
</tspan></tspan><tspan
       x="406.61328"
       y="402.92079"><tspan
         style="font-style:normal;font-variant:normal;font-weight:normal;font-stretch:normal;line-height:0.95;font-family:'Berlin Sans FB Demi';-inkscape-font-specification:'Berlin Sans FB Demi';fill:#5599ff">Ângelo</tspan></tspan></text>
</svg>
